<svg width="675" height="700" viewBox="0 0 675 700" fill="none" xmlns="http://www.w3.org/2000/svg">
<mask id="mask0" mask-type="alpha" maskUnits="userSpaceOnUse" x="0" y="0" width="675" height="700">
<rect width="675" height="700" fill="#C4C4C4"/>
</mask>
<g mask="url(#mask0)">
<path d="M-12 778.315L-12 -148.999L624.747 -148.999C624.747 -148.999 675 -14.8523 675 340C675 694.852 624.747 778.315 624.747 778.315L-12 778.315Z" fill="url(#paint0_linear)"/>
<mask id="mask1" mask-type="alpha" maskUnits="userSpaceOnUse" x="-1" y="-222" width="365" height="418">
<rect x="-0.999512" y="195.91" width="417.91" height="364.267" transform="rotate(-90 -0.999512 195.91)" fill="#C4C4C4"/>
</mask>
<g mask="url(#mask1)">
<path d="M125.166 -202.002C225.319 -202.002 305.729 -122.752 305.729 -25.942C305.729 70.8677 225.319 150.118 125.166 150.118C25.0135 150.118 -55.3967 70.8677 -55.3967 -25.942C-55.3967 -122.752 25.0135 -202.002 125.166 -202.002Z" stroke="url(#paint1_linear)" stroke-width="40"/>
</g>
<rect x="2.13331" y="-0.221313" width="17.6127" height="17.709" rx="2.5" transform="matrix(0.638953 -0.769245 0.783252 0.621704 264.688 226.469)" stroke="#5E71EA" stroke-width="3"/>
<rect x="2.13331" y="-0.221313" width="17.6127" height="17.709" rx="2.5" transform="matrix(0.638953 -0.769245 0.783252 0.621704 199.011 59.3037)" stroke="#5E71EA" stroke-width="3"/>
<rect x="2.13331" y="-0.221313" width="17.6127" height="17.709" rx="2.5" transform="matrix(0.638953 -0.769245 0.783252 0.621704 373.205 562.343)" stroke="#4C61DD" stroke-width="3"/>
<rect x="1.42221" y="-0.147542" width="12.4101" height="12.4774" rx="2" transform="matrix(0.638953 -0.769245 0.783252 0.621704 117.191 457.908)" stroke="#5E71EA" stroke-width="2"/>
<path d="M384.968 168.307C385.786 169.977 387.098 171.37 388.736 172.31C390.374 173.25 392.266 173.694 394.172 173.587C396.078 173.48 397.913 172.827 399.444 171.709C400.975 170.591 402.134 169.06 402.774 167.308C403.414 165.556 403.507 163.663 403.041 161.868C402.574 160.072 401.57 158.455 400.154 157.222C398.738 155.988 396.974 155.192 395.086 154.936" stroke="#4C61DD" stroke-width="3" stroke-linecap="round"/>
<path d="M459.593 482.935C460.599 484.503 462.063 485.743 463.8 486.495C465.536 487.248 467.467 487.481 469.348 487.164C471.23 486.847 472.977 485.995 474.369 484.715C475.761 483.436 476.736 481.786 477.169 479.975C477.603 478.163 477.476 476.272 476.805 474.54C476.134 472.807 474.949 471.312 473.399 470.242C471.85 469.173 470.006 468.578 468.1 468.531" stroke="#4C61DD" stroke-width="3" stroke-linecap="round"/>
<path d="M650.297 642.939C680.718 700.852 657.495 772.339 597.671 802.367C537.847 832.396 464.886 809.189 434.465 751.275C404.045 693.361 427.267 621.875 487.091 591.846C546.915 561.818 619.877 585.025 650.297 642.939Z" stroke="url(#paint2_linear)" stroke-width="40"/>
<path d="M349.735 664.534H305.193L304.962 664.306L265.631 625.984C263.971 624.346 261.616 623.889 259.455 624.803C257.332 625.756 255.904 627.622 255.904 629.946V664.763H244.286V578.52C244.286 576.882 243.591 575.473 242.626 574.559L209.934 544.161C208.969 543.208 207.579 542.523 206.151 542.523H189.824C186.736 542.523 184.15 545.075 184.15 548.122V664.763H172.532V477.575C172.532 475.251 171.104 473.384 168.981 472.432C166.859 471.48 164.465 472.203 162.806 473.613L108.807 527.59C107.842 528.543 107.148 529.914 107.148 531.552V573.378L85.1081 556.998C83.2168 555.589 80.129 555.589 78.2377 557.227L28.0218 596.957C26.5937 598.138 25.8989 599.51 25.8989 601.414V664.763H14.5126V629.717C14.5126 617.337 5.98244 604.462 -9.8813 604.462C-25.745 604.462 -34.2752 617.566 -34.2752 629.946V664.763H-45.8932V641.145C-45.8932 631.546 -52.532 621.261 -65.0763 621.261C-77.6206 621.261 -84.2594 631.546 -84.2594 641.145V664.763H-95.6459V663.582C-95.6459 658.896 -95.6459 652.611 -95.6459 650.249C-95.6459 642.059 -103.443 634.822 -112.475 634.822C-121.468 634.822 -129.303 641.831 -129.303 650.021V664.496H-179.326C-182.414 664.496 -185 667.048 -185 670.096C-185 671.505 -184.537 672.914 -183.34 674.057C-182.375 675.01 -180.986 675.695 -179.326 675.695H-123.436C-122.008 675.695 -120.58 675.238 -119.422 674.057C-118.226 673.105 -117.762 671.734 -117.762 670.096V651.163C-117.762 649.068 -115.408 646.021 -112.32 646.021C-109.232 646.021 -106.878 648.84 -106.878 651.392C-106.878 652.801 -106.878 670.324 -106.878 670.324C-106.878 673.372 -104.292 675.924 -101.204 675.924H-78.4698C-75.3819 675.924 -72.7959 673.372 -72.7959 670.324V641.107C-72.7959 638.06 -71.1362 632.46 -64.9991 632.46C-58.8234 632.46 -57.2023 638.06 -57.2023 641.107V670.324C-57.2023 673.372 -54.6163 675.924 -51.5284 675.924H-28.7943C-27.3662 675.924 -25.938 675.238 -24.7801 674.286C-23.8152 673.333 -23.1204 671.734 -23.1204 670.324V629.946C-23.1204 625.032 -20.2641 615.699 -10.1129 615.699C-0.386215 615.699 2.89462 624.118 2.89462 629.946V670.4C2.89462 673.448 5.48068 676 8.56853 676H31.3027C34.3905 676 36.9766 673.448 36.9766 670.4V604.005L37.4397 603.776L81.7115 568.731L107.07 587.434V670.4C107.07 673.448 109.656 676 112.744 676H135.478C138.566 676 141.152 673.448 141.152 670.4V601.186C141.152 599.548 140.187 597.681 138.798 596.729L118.418 581.758V534.104L118.65 533.876L161.03 491.326V670.362C161.03 673.41 163.616 675.962 166.704 675.962H189.438C192.526 675.962 195.112 673.41 195.112 670.362V553.76H203.411L203.642 553.989L232.552 580.882V670.172C232.552 673.219 235.138 675.771 238.226 675.771H261.192C264.28 675.771 266.866 673.219 266.866 670.172V643.05L298.362 673.905C299.326 674.857 300.716 675.543 302.376 675.543H349.272C352.36 675.543 354.946 672.991 354.946 669.943C355.409 667.124 352.823 664.534 349.735 664.534ZM129.959 604.005V664.763H118.573V595.586L129.959 604.005Z" fill="#8EB4FE" fill-opacity="0.08"/>
<!-- <path d="M241.898 378.689C239.189 377.849 237.971 377.334 237.971 375.791C237.971 374.374 239.84 373.922 241.446 373.922C242.863 373.922 244.344 374.311 245.373 375.014C245.635 375.14 245.887 375.203 246.213 375.14C246.475 375.077 246.727 374.878 246.853 374.626L247.304 373.723C247.567 373.271 247.367 372.694 246.979 372.432C245.499 371.466 243.441 370.888 241.572 370.888C237.646 370.888 234.937 372.946 234.937 375.917C234.937 379.844 238.223 380.81 240.932 381.649C243.703 382.489 244.921 383.004 244.921 384.673C244.921 386.353 242.989 386.93 241.121 386.93C239.378 386.93 237.446 385.964 236.291 384.936C236.029 384.747 235.777 384.61 235.451 384.61C235.126 384.673 234.874 384.799 234.674 385.125L234.16 386.027C233.897 386.416 233.971 386.93 234.286 387.256C236.029 388.936 238.601 390.028 241.047 390.028C245.173 390.028 248.008 387.907 248.008 384.684C247.945 380.495 244.596 379.466 241.898 378.689Z" fill="white"/>
<path d="M260.123 371.414C259.934 371.025 259.609 370.836 259.22 370.836H258.128C257.74 370.836 257.351 371.099 257.225 371.414L249.498 388.422C249.372 388.747 249.372 389.062 249.561 389.388C249.75 389.713 250.076 389.839 250.401 389.839H251.493C251.881 389.839 252.27 389.577 252.396 389.262L254.328 385.01H263.021L264.952 389.262C265.141 389.65 265.467 389.839 265.855 389.839H266.947C267.273 389.839 267.588 389.65 267.787 389.388C267.976 389.125 267.976 388.747 267.85 388.422L260.123 371.414ZM255.682 381.976L258.643 375.403L261.603 381.976H255.682Z" fill="white"/>
<path d="M272.943 370.825H271.914C271.337 370.825 270.886 371.277 270.886 371.854V388.862C270.886 389.44 271.337 389.891 271.914 389.891H272.943C273.521 389.891 273.972 389.44 273.972 388.862V371.854C273.972 371.277 273.521 370.825 272.943 370.825Z" fill="white"/>
<path d="M294.203 370.825H293.175C292.597 370.825 292.146 371.277 292.146 371.854V384.285L282.613 371.277C282.424 371.014 282.098 370.888 281.773 370.888H280.545C279.967 370.888 279.516 371.34 279.516 371.917V388.925C279.516 389.503 279.967 389.954 280.545 389.954H281.573C282.151 389.954 282.602 389.503 282.602 388.925V376.568L292.135 389.576C292.324 389.839 292.65 389.965 292.975 389.965H294.203C294.781 389.965 295.232 389.513 295.232 388.936V371.928C295.232 371.277 294.781 370.825 294.203 370.825Z" fill="white"/>
<path d="M311.788 370.825H299.294C298.717 370.825 298.266 371.277 298.266 371.854V372.883C298.266 373.461 298.717 373.912 299.294 373.912H304.061V388.925C304.061 389.503 304.512 389.954 305.09 389.954H306.119C306.696 389.954 307.147 389.503 307.147 388.925V373.912H311.914C312.491 373.912 312.943 373.461 312.943 372.883V371.854C312.817 371.277 312.365 370.825 311.788 370.825Z" fill="white"/>
<path d="M319.263 380.107H313.856C313.279 380.107 312.827 380.558 312.827 381.136V381.976C312.827 382.553 313.279 383.005 313.856 383.005H319.263C319.841 383.005 320.292 382.553 320.292 381.976V381.136C320.292 380.558 319.841 380.107 319.263 380.107Z" fill="white"/>
<path d="M340.461 379.529H339.558H336.524C335.946 379.529 335.495 379.981 335.495 380.558V381.587C335.495 382.164 335.946 382.616 336.524 382.616H338.581V385.713C337.426 386.553 335.936 387.004 334.518 387.004C330.781 387.004 327.694 384.044 327.694 380.432C327.694 376.821 330.718 373.86 334.518 373.86C336.261 373.86 337.993 374.5 339.222 375.603C339.411 375.792 339.673 375.865 339.999 375.865C340.261 375.865 340.513 375.739 340.702 375.477L341.28 374.7C341.605 374.248 341.542 373.671 341.154 373.282C339.348 371.676 336.965 370.773 334.518 370.773C329.111 370.773 324.66 375.025 324.66 380.306C324.66 385.587 329.038 389.839 334.455 389.839C336.902 389.839 339.348 388.936 341.154 387.393C341.343 387.204 341.479 386.941 341.479 386.616V380.432C341.427 379.981 340.975 379.529 340.461 379.529Z" fill="white"/>
<path d="M354.76 370.825C349.353 370.825 344.902 375.077 344.902 380.358C344.902 385.639 349.28 389.891 354.76 389.891C360.167 389.891 364.618 385.576 364.618 380.358C364.545 375.077 360.167 370.825 354.76 370.825ZM354.76 386.868C351.022 386.868 347.999 383.907 347.999 380.295C347.999 376.684 351.022 373.786 354.76 373.786C358.498 373.786 361.521 376.684 361.521 380.295C361.521 383.97 358.424 386.868 354.76 386.868Z" fill="white"/>
<path d="M380.65 379.781C381.678 378.878 382.256 377.587 382.256 376.043C382.256 372.82 379.81 370.825 375.946 370.825H368.985C368.408 370.825 367.957 371.277 367.957 371.854V388.862C367.957 389.44 368.408 389.891 368.985 389.891H376.009C380.45 389.891 383.159 387.834 383.159 384.285C383.106 382.301 382.266 380.747 380.65 379.781ZM375.946 378.563H371.054V373.86H375.946C377.426 373.86 379.232 374.248 379.232 376.18C379.232 377.723 378.14 378.563 375.946 378.563ZM370.991 381.587H375.883C377.426 381.587 380.072 381.912 380.072 384.159C380.072 386.406 377.815 386.868 375.883 386.868H370.991V381.587Z" fill="white"/>
<path d="M395.475 371.414C395.286 371.025 394.96 370.836 394.572 370.836H393.48C393.091 370.836 392.703 371.099 392.577 371.414L384.85 388.422C384.724 388.747 384.724 389.062 384.913 389.388C385.102 389.713 385.427 389.839 385.753 389.839H386.845C387.233 389.839 387.621 389.577 387.747 389.262L389.679 385.01H398.372L400.304 389.262C400.493 389.65 400.818 389.839 401.207 389.839H402.299C402.624 389.839 402.939 389.65 403.139 389.388C403.338 389.125 403.328 388.747 403.202 388.422L395.475 371.414ZM391.086 381.976L394.047 375.403L397.007 381.976H391.086Z" fill="white"/>
<path d="M408.356 370.825H407.327C406.75 370.825 406.299 371.277 406.299 371.854V388.862C406.299 389.44 406.75 389.891 407.327 389.891H408.356C408.934 389.891 409.385 389.44 409.385 388.862V371.854C409.322 371.277 408.871 370.825 408.356 370.825Z" fill="white"/>
<path d="M429.616 370.825H428.587C428.009 370.825 427.558 371.277 427.558 371.854V384.285L418.025 371.277C417.836 371.014 417.511 370.888 417.185 370.888H415.957C415.379 370.888 414.928 371.34 414.928 371.917V388.925C414.928 389.503 415.379 389.954 415.957 389.954H416.986C417.563 389.954 418.015 389.503 418.015 388.925V376.568L427.547 389.576C427.736 389.839 428.062 389.965 428.387 389.965H429.616C430.193 389.965 430.645 389.513 430.645 388.936V371.928C430.582 371.277 430.13 370.825 429.616 370.825Z" fill="white"/> -->
<!-- <path d="M404.23 356.065H392.114L392.051 356.002L381.353 345.44C380.901 344.988 380.261 344.862 379.673 345.114C379.096 345.377 378.707 345.891 378.707 346.532V356.128H375.547V332.358C375.547 331.907 375.358 331.518 375.095 331.266L366.203 322.888C365.941 322.626 365.563 322.437 365.174 322.437H360.733C359.893 322.437 359.19 323.14 359.19 323.98V356.128H356.03V304.536C356.03 303.896 355.641 303.382 355.064 303.119C354.486 302.857 353.835 303.056 353.384 303.445L338.696 318.321C338.434 318.584 338.245 318.962 338.245 319.413V330.941L332.25 326.426C331.735 326.038 330.895 326.038 330.381 326.489L316.722 337.44C316.334 337.765 316.145 338.143 316.145 338.668V356.128H313.048V346.469C313.048 343.057 310.727 339.508 306.412 339.508C302.097 339.508 299.777 343.12 299.777 346.532V356.128H296.617V349.618C296.617 346.973 294.811 344.138 291.399 344.138C287.987 344.138 286.181 346.973 286.181 349.618V356.128H283.084V355.802C283.084 354.511 283.084 352.778 283.084 352.127C283.084 349.87 280.963 347.875 278.506 347.875C276.06 347.875 273.929 349.807 273.929 352.065V356.054H260.323C259.483 356.054 258.779 356.757 258.779 357.597C258.779 357.986 258.905 358.374 259.231 358.689C259.493 358.952 259.871 359.141 260.323 359.141H275.525C275.913 359.141 276.302 359.015 276.617 358.689C276.942 358.427 277.068 358.049 277.068 357.597V352.379C277.068 351.802 277.709 350.962 278.548 350.962C279.388 350.962 280.029 351.739 280.029 352.442C280.029 352.831 280.029 357.66 280.029 357.66C280.029 358.5 280.732 359.204 281.572 359.204H287.756C288.596 359.204 289.299 358.5 289.299 357.66V349.608C289.299 348.768 289.751 347.225 291.42 347.225C293.1 347.225 293.541 348.768 293.541 349.608V357.66C293.541 358.5 294.244 359.204 295.084 359.204H301.268C301.656 359.204 302.045 359.015 302.36 358.752C302.622 358.49 302.811 358.049 302.811 357.66V346.532C302.811 345.177 303.588 342.605 306.349 342.605C308.995 342.605 309.887 344.925 309.887 346.532V357.681C309.887 358.521 310.591 359.225 311.431 359.225H317.615C318.454 359.225 319.158 358.521 319.158 357.681V339.382L319.284 339.319L331.326 329.66L338.224 334.815V357.681C338.224 358.521 338.927 359.225 339.767 359.225H345.951C346.791 359.225 347.494 358.521 347.494 357.681V338.605C347.494 338.154 347.232 337.639 346.854 337.377L341.31 333.251V320.117L341.373 320.054L352.901 308.326V357.671C352.901 358.511 353.604 359.214 354.444 359.214H360.628C361.468 359.214 362.171 358.511 362.171 357.671V325.534H364.429L364.492 325.597L372.355 333.009V357.618C372.355 358.458 373.059 359.162 373.899 359.162H380.145C380.985 359.162 381.689 358.458 381.689 357.618V350.143L390.256 358.647C390.518 358.91 390.896 359.099 391.348 359.099H404.104C404.944 359.099 405.647 358.395 405.647 357.555C405.773 356.778 405.07 356.065 404.23 356.065ZM344.449 339.382V356.128H341.352V337.062L344.449 339.382Z" fill="white"/> -->
</g>
<defs>
<linearGradient id="paint0_linear" x1="-12" y1="314.658" x2="889.825" y2="313.67" gradientUnits="userSpaceOnUse">
<stop stop-color="#4C61E1"/>
<stop offset="0.0001" stop-color="#142748"/>
<stop offset="1" stop-color="#1A448C"/>
</linearGradient>
<linearGradient id="paint1_linear" x1="29.2795" y1="160.745" x2="319.439" y2="-116.877" gradientUnits="userSpaceOnUse">
<stop stop-color="#6579F0"/>
<stop offset="1" stop-color="#4559D1" stop-opacity="0"/>
</linearGradient>
<linearGradient id="paint2_linear" x1="352" y1="597.325" x2="635.614" y2="735.906" gradientUnits="userSpaceOnUse">
<stop stop-color="#6579F0"/>
<stop offset="1" stop-color="#4054C6" stop-opacity="0"/>
</linearGradient>
</defs>
</svg>
